<svg width="1200" height="800" viewBox="0 0 1200 800" fill="none" xmlns="http://www.w3.org/2000/svg">
  <defs>
    <linearGradient id="bg" x1="0" y1="0" x2="1" y2="1">
      <stop offset="0%" stop-color="#0b3d2e"/>
      <stop offset="50%" stop-color="#2f6f4f"/>
      <stop offset="100%" stop-color="#8bc34a"/>
    </linearGradient>
    <linearGradient id="card" x1="0" y1="0" x2="1" y2="1">
      <stop offset="0%" stop-color="#ff9800"/>
      <stop offset="100%" stop-color="#f57c00"/>
    </linearGradient>
  </defs>

  <rect width="1200" height="800" fill="url(#bg)"/>

  <g opacity="0.28">
    <path d="M0 640C150 560 300 600 450 520C600 440 720 470 870 390C1000 320 1090 350 1200 300V800H0V640Z" fill="#1b5e20"/>
    <path d="M0 700C190 620 340 670 510 600C660 540 790 560 950 500C1070 450 1130 480 1200 450V800H0V700Z" fill="#2e7d32"/>
  </g>

  <rect x="90" y="430" width="520" height="260" rx="42" fill="url(#card)" opacity="0.95"/>
  <text x="135" y="500" fill="#fff3e0" font-family="Poppins, Arial, sans-serif" font-size="34" font-weight="700">LIVE WEATHER</text>
  <text x="135" y="590" fill="white" font-family="Poppins, Arial, sans-serif" font-size="110" font-weight="800">32°</text>
  <text x="135" y="646" fill="#fff3e0" font-family="Poppins, Arial, sans-serif" font-size="46" font-weight="700">Sunny &amp; Hot</text>

  <circle cx="940" cy="185" r="84" fill="#ffd54f" opacity="0.95"/>
  <g stroke="#ffecb3" stroke-width="9" stroke-linecap="round">
    <line x1="940" y1="70" x2="940" y2="34"/>
    <line x1="940" y1="336" x2="940" y2="300"/>
    <line x1="824" y1="185" x2="788" y2="185"/>
    <line x1="1092" y1="185" x2="1056" y2="185"/>
    <line x1="865" y1="110" x2="839" y2="84"/>
    <line x1="1015" y1="260" x2="1041" y2="286"/>
    <line x1="865" y1="260" x2="839" y2="286"/>
    <line x1="1015" y1="110" x2="1041" y2="84"/>
  </g>

  <text x="90" y="120" fill="white" font-family="Poppins, Arial, sans-serif" font-size="72" font-weight="800">Kisan Saathi</text>
  <text x="90" y="170" fill="#dcfce7" font-family="Poppins, Arial, sans-serif" font-size="34" font-weight="500">Voice-first farmer companion app</text>

  <g opacity="0.88">
    <circle cx="220" cy="260" r="58" fill="#c8e6c9"/>
    <circle cx="390" cy="260" r="58" fill="#c8e6c9"/>
    <circle cx="560" cy="260" r="58" fill="#c8e6c9"/>
    <text x="160" y="350" fill="#e8f5e9" font-family="Poppins, Arial, sans-serif" font-size="28" font-weight="700">Crop Price</text>
    <text x="308" y="350" fill="#e8f5e9" font-family="Poppins, Arial, sans-serif" font-size="28" font-weight="700">Advisory</text>
    <text x="474" y="350" fill="#e8f5e9" font-family="Poppins, Arial, sans-serif" font-size="28" font-weight="700">Disease AI</text>
  </g>
</svg>
